<svg xmlns="http://www.w3.org/2000/svg" width="22" height="21" viewBox="0 0 22 21" fill="none">
    <path d="M14.2221 20.7915C14.4978 20.7915 14.7622 20.682 14.9572 20.487C15.1522 20.292 15.2617 20.0276 15.2617 19.7518C15.2617 19.4761 15.1522 19.2117 14.9572 19.0167C14.7622 18.8217 14.4978 18.7122 14.2221 18.7122H5.55811C4.82281 18.7122 4.11762 18.4201 3.59768 17.9001C3.07774 17.3802 2.78565 16.675 2.78565 15.9397V4.84986C2.78565 4.11455 3.07774 3.40937 3.59768 2.88943C4.11762 2.36949 4.82281 2.07739 5.55811 2.07739H14.2221C14.4978 2.07739 14.7622 1.96786 14.9572 1.77288C15.1522 1.5779 15.2617 1.31346 15.2617 1.03772C15.2617 0.761982 15.1522 0.497537 14.9572 0.30256C14.7622 0.107583 14.4978 -0.00195312 14.2221 -0.00195312H5.55811C4.27133 -0.00195312 3.03725 0.509218 2.12736 1.41911C1.21747 2.329 0.706299 3.56308 0.706299 4.84986V15.9397C0.706299 17.2265 1.21747 18.4606 2.12736 19.3705C3.03725 20.2803 4.27133 20.7915 5.55811 20.7915H14.2221ZM15.5958 5.12572C15.6961 5.03304 15.8137 4.96102 15.9418 4.91379C16.0699 4.86656 16.2061 4.84503 16.3426 4.85043C16.479 4.85584 16.6131 4.88808 16.7371 4.9453C16.8611 5.00252 16.9726 5.08361 17.0652 5.18394L21.2239 9.68919C21.4014 9.88129 21.5 10.1332 21.5 10.3948C21.5 10.6563 21.4014 10.9083 21.2239 11.1004L17.0652 15.6056C16.8779 15.808 16.6179 15.9277 16.3423 15.9384C16.0667 15.949 15.7982 15.8498 15.5958 15.6625C15.3934 15.4751 15.2737 15.2151 15.2631 14.9395C15.2524 14.664 15.3517 14.3954 15.539 14.1931L18.0869 11.4331H7.2909C7.01516 11.4331 6.75071 11.3235 6.55574 11.1286C6.36076 10.9336 6.25122 10.6691 6.25122 10.3934C6.25122 10.1177 6.36076 9.85321 6.55574 9.65824C6.75071 9.46326 7.01516 9.35372 7.2909 9.35372H18.0855L15.5376 6.59374C15.4449 6.49344 15.3729 6.37587 15.3257 6.24774C15.2784 6.11961 15.2569 5.98343 15.2623 5.84697C15.2677 5.71052 15.2999 5.57647 15.3572 5.45248C15.4144 5.32848 15.4955 5.21698 15.5958 5.12433V5.12572Z" fill="white"/>
</svg>
